#!OML:ASF H:\BreakDance\Project 1\Capture day 1\Session 1\Male.ASF
:FULLY-SPECIFIED
:DEGREES
605
root 25.5818 12.67 -1.80826 -312.956 125.094 49.7879
lowerback 17.638 -0.48849 -13.0328
upperback 6.26256 -2.37161 -3.47472
thorax -2.62014 -1.02307 4.06122
lowerneck -3.11673 -18.5567 -9.30942
upperneck -19.6586 -21.8583 25.838
head -1.07707 -10.9771 8.60575
rclavicle -7.95139e-015 -4.13472e-014
rhumerus 46.8243 52.3502 -51.4104
rradius 49.0611
rwrist -0.982177
rhand -21.2592 716.177
rfingers 7.12502
rthumb 5.12405 -33.7406
lclavicle -7.95139e-015 -4.13472e-014
lhumerus 6.44706 2.50163 74.8095
lradius 37.8075
lwrist 8.83825
lhand -28.0465 -375.185
lfingers 7.12502
lthumb -1.43081 14.79
rfemur -52.1727 -3.68589 8.49432
rtibia 110.113
rfoot -8.25572 13.0282
rtoes -25.2625
lfemur -76.8208 22.7297 -15.9469
ltibia 91.3583
lfoot -29.1688 9.16148
ltoes -8.62118
606
root 25.4872 12.7794 -1.84894 -310.6 122.562 52.5585
lowerback 17.3367 -0.571762 -13.0543
upperback 6.12603 -2.48368 -3.49899
thorax -2.59486 -1.08806 4.06147
lowerneck -2.76543 -18.7031 -9.26361
upperneck -19.9509 -22.0205 26.2806
head -1.13047 -11.1313 8.75642
rclavicle -6.36111e-014 -5.08889e-014
rhumerus 46.3535 52.146 -50.5767
rradius 49.3269
rwrist -1.50425
rhand -22.1044 716.428
rfingers 7.12502
rthumb 4.308 -33.5083
lclavicle -6.36111e-014 -5.08889e-014
lhumerus 7.12456 1.08666 74.3866
lradius 39.1165
lwrist 5.31689
lhand -27.426 -375.333
lfingers 7.12502
lthumb -0.831555 14.6453
rfemur -50.5337 -4.48861 9.34455
rtibia 111.568
rfoot -7.77226 14.2092
rtoes -26.6752
lfemur -74.5758 22.6827 -15.1392
ltibia 89.6484
lfoot -28.9869 9.5056
ltoes -9.11457
607
root 25.3937 12.9056 -1.89993 -307.827 120.024 55.6434
lowerback 17.0275 -0.633511 -13.1327
upperback 5.93689 -2.58219 -3.54889
thorax -2.62202 -1.14129 4.06311
lowerneck -2.41085 -18.8453 -9.31774
upperneck -20.1194 -22.2108 26.6541
head -1.14143 -11.2903 8.8882
rclavicle 1.59028e-015 0
rhumerus 45.6715 51.9907 -49.9163
rradius 49.7396
rwrist -2.0943
rhand -23.3456 716.586
rfingers 7.12502
rthumb 3.10939 -33.3712
lclavicle 1.59028e-015 0
lhumerus 7.78578 -0.711518 73.7543
lradius 40.4313
lwrist 2.68925
lhand -26.7309 -375.88
lfingers 7.12502
lthumb -0.160144 14.0996
rfemur -48.792 -5.48241 10.0714
rtibia 112.43
rfoot -7.33234 15.0662
rtoes -27.753
lfemur -72.1151 22.4974 -14.5229
ltibia 87.6897
lfoot -28.923 9.81653
ltoes -9.04336
608
root 25.3068 13.0259 -1.95297 -304.503 117.523 59.1377
lowerback 16.6943 -0.686161 -13.2432
upperback 5.68644 -2.67808 -3.61469
thorax -2.70184 -1.18805 4.0647
lowerneck -2.01434 -18.9667 -9.43675
upperneck -20.2764 -22.3844 26.9618
head -1.15962 -11.4377 9.01561
rclavicle 6.36111e-015 1.59028e-014
rhumerus 44.8045 51.8592 -49.4213
rradius 50.2376
rwrist -2.58629
rhand -24.8597 716.591
rfingers 7.12502
rthumb 1.64706 -33.3822
lclavicle 6.36111e-015 1.59028e-014
lhumerus 8.41125 -2.8899 72.9634
lradius 41.8848
lwrist 1.46093
lhand -26.0443 -376.653
lfingers 7.12502
lthumb 0.502966 13.326
rfemur -47.1248 -6.69056 10.6174
rtibia 112.867
rfoot -6.99848 15.6947
rtoes -28.1408
lfemur -69.7726 22.0963 -14.086
ltibia 85.7102
lfoot -28.911 10.1499
ltoes -8.6916
609
root 25.2273 13.1326 -2.00503 -300.432 115.121 63.2221
lowerback 16.3334 -0.742337 -13.3479
upperback 5.36945 -2.7821 -3.68616
thorax -2.83811 -1.23323 4.05835
lowerneck -1.68774 -19.066 -9.5357
upperneck -20.3484 -22.5468 27.1205
head -1.16919 -11.5671 9.0884
rclavicle 2.54444e-014 1.17681e-013
rhumerus 43.8181 51.7621 -49.0606
rradius 50.7965
rwrist -3.00564
rhand -26.4207 716.557
rfingers 7.12502
rthumb 0.139389 -33.4231
lclavicle 2.54444e-014 1.17681e-013
lhumerus 9.0168 -5.31559 72.0733
lradius 43.5112
lwrist 1.56425
lhand -25.4217 -377.427
lfingers 7.12502
lthumb 1.1043 12.5498
rfemur -45.628 -8.03579 11.0195
rtibia 112.937
rfoot -6.75729 16.1757
rtoes -27.9
lfemur -67.7391 21.4824 -13.8074
ltibia 83.8124
lfoot -28.8791 10.541
ltoes -8.80318
610
root 25.1556 13.2225 -2.05475 -295.462 112.882 68.0852
lowerback 15.93 -0.811237 -13.4327
upperback 5.02218 -2.89498 -3.75954
thorax -2.98357 -1.28054 4.0391
lowerneck -1.42714 -19.1293 -9.63451
upperneck -20.3616 -22.6695 27.2001
head -1.16983 -11.6667 9.13385
rclavicle 1.59028e-015 -2.8625e-014
rhumerus 42.7715 51.6805 -48.8287
rradius 51.3973
rwrist -3.33385
rhand -27.8772 716.492
rfingers 7.12502
rthumb -1.26734 -33.4842
lclavicle 1.59028e-015 -2.8625e-014
lhumerus 9.66748 -7.75597 71.1372
lradius 45.263
lwrist 2.49394
lhand -24.7719 -378.105
lfingers 7.12502
lthumb 1.73191 11.8678
rfemur -44.3036 -9.43144 11.3146
rtibia 112.667
rfoot -6.53381 16.5227
rtoes -27.2945
lfemur -66.0865 20.6408 -13.6322
ltibia 82.0531
lfoot -28.7353 11.0075
ltoes -10.2951
611
root 25.0891 13.3135 -2.10511 -289.365 110.917 74.0068
lowerback 15.4934 -0.890864 -13.4534
upperback 4.65759 -3.00709 -3.81923
thorax -3.13235 -1.3264 3.99781
lowerneck -1.11202 -19.1399 -9.7117
upperneck -20.4374 -22.7102 27.239
head -1.21986 -11.7303 9.18828
rclavicle -2.06736e-014 -4.77083e-014
rhumerus 41.6993 51.6395 -48.7043
rradius 52.0533
rwrist -3.59826
rhand -29.1144 716.382
rfingers 7.12502
rthumb -2.46224 -33.5839
lclavicle -2.06736e-014 -4.77083e-014
lhumerus 10.3603 -10.1103 70.1688
lradius 47.0328
lwrist 3.64848
lhand -24.1782 -378.698
lfingers 7.12502
lthumb 2.30527 11.2696
rfemur -43.0581 -10.7355 11.6573
rtibia 111.949
rfoot -6.36877 16.612
rtoes -27.1457
lfemur -64.7355 19.9211 -13.5604
ltibia 80.3377
lfoot -28.4192 11.1658
ltoes -13.6673
